<svg width="44" height="44" viewBox="0 0 44 44" fill="none" xmlns="http://www.w3.org/2000/svg">
<path fill-rule="evenodd" clip-rule="evenodd" d="M0 22C0 9.85089 9.85089 0 22 0C34.1491 0 44 9.85089 44 22C44 34.1491 34.1491 44 22 44C9.85089 44 0 34.1491 0 22ZM3.73214 22C3.73214 32.0866 11.9134 40.2679 22 40.2679C32.0866 40.2679 40.2679 32.0866 40.2679 22C40.2679 11.9134 32.0866 3.73214 22 3.73214C11.9134 3.73214 3.73214 11.9134 3.73214 22ZM19.3472 22.6488C19.4973 22.0397 19.7533 21.4659 20.0623 20.9451C17.7052 20.9451 13 22.128 13 24.4762V27.1246H20.0623C19.7533 26.6126 19.5061 26.0476 19.3561 25.4473H14.6773V24.4762C14.6773 23.9642 16.9725 22.8519 19.3472 22.6488ZM22.5592 14.0342C21.897 13.372 20.9988 13 20.0623 13C19.1258 13 18.2276 13.372 17.5654 14.0342C16.9032 14.6965 16.5311 15.5946 16.5311 16.5311C16.5311 17.4677 16.9032 18.3658 17.5654 19.028C18.2276 19.6903 19.1258 20.0623 20.0623 20.0623L20.8656 19.974C21.4306 19.409 22.1103 18.9588 22.8695 18.6763C23.3198 18.076 23.5934 17.3345 23.5934 16.5311C23.5934 15.5946 23.2214 14.6965 22.5592 14.0342ZM18.7514 15.2203C19.0991 14.8726 19.5706 14.6773 20.0623 14.6773C20.554 14.6773 21.0255 14.8726 21.3732 15.2203C21.7208 15.5679 21.9161 16.0395 21.9161 16.5311C21.9161 17.0228 21.7208 17.4943 21.3732 17.842C21.0255 18.1897 20.554 18.385 20.0623 18.385C19.5706 18.385 19.0991 18.1897 18.7514 17.842C18.4038 17.4943 18.2084 17.0228 18.2084 16.5311C18.2084 16.0395 18.4038 15.5679 18.7514 15.2203ZM28.8901 24.0348C28.8901 21.8279 27.1246 20.0623 24.9176 20.0623C22.7106 20.0623 20.9451 21.8279 20.9451 24.0348C20.9451 26.2418 22.7106 28.0074 24.9176 28.0074C25.6856 28.0074 26.4095 27.7867 27.0186 27.4071L29.7729 30.1172L31 28.8901L28.281 26.1535C28.6694 25.5444 28.8901 24.8117 28.8901 24.0348ZM23.357 22.4743C23.7709 22.0604 24.3323 21.8279 24.9176 21.8279C25.5029 21.8279 26.0643 22.0604 26.4782 22.4743C26.8921 22.8881 27.1246 23.4495 27.1246 24.0348C27.1246 24.6201 26.8921 25.1815 26.4782 25.5954C26.0643 26.0093 25.5029 26.2418 24.9176 26.2418C24.3323 26.2418 23.7709 26.0093 23.357 25.5954C22.9432 25.1815 22.7106 24.6201 22.7106 24.0348C22.7106 23.4495 22.9432 22.8881 23.357 22.4743Z" fill="#00B74C"/>
</svg>
