<svg width="44" height="44" viewBox="0 0 44 44" fill="none" xmlns="http://www.w3.org/2000/svg">
<path fill-rule="evenodd" clip-rule="evenodd" d="M0 22C0 9.85089 9.85089 0 22 0C34.1491 0 44 9.85089 44 22C44 34.1491 34.1491 44 22 44C9.85089 44 0 34.1491 0 22ZM3.73214 22C3.73214 32.0866 11.9134 40.2679 22 40.2679C32.0866 40.2679 40.2679 32.0866 40.2679 22C40.2679 11.9134 32.0866 3.73214 22 3.73214C11.9134 3.73214 3.73214 11.9134 3.73214 22ZM18.3233 13.7532C18.8055 13.2709 19.4596 13 20.1416 13H24.7521C25.2633 13.0001 25.7535 13.2031 26.115 13.5644L28.5759 16.0266C28.9372 16.3881 29.1402 16.8783 29.1403 17.3894V18.7857H29.1429V25.8571C29.1429 26.5391 28.8719 27.1932 28.3897 27.6754C27.9075 28.1577 27.2534 28.4286 26.5714 28.4286H20.1416C19.4596 28.4286 18.8055 28.1577 18.3233 27.6754C17.8411 27.1932 17.5701 26.5391 17.5701 25.8571V15.5714C17.5701 14.8894 17.8411 14.2354 18.3233 13.7532ZM20.1416 27.1429H26.5714C26.9124 27.1429 27.2394 27.0074 27.4806 26.7663C27.7217 26.5252 27.8571 26.1981 27.8571 25.8571V19.507H27.8559V18.1429H25.9273C25.4158 18.1429 24.9253 17.9397 24.5636 17.578C24.2019 17.2163 23.9987 16.7258 23.9987 16.2143V14.2857H20.1416C19.8006 14.2857 19.4736 14.4212 19.2324 14.6623C18.9913 14.9034 18.8559 15.2304 18.8559 15.5714V25.8571C18.8559 26.1981 18.9913 26.5252 19.2324 26.7663C19.4736 27.0074 19.8006 27.1429 20.1416 27.1429ZM25.926 16.8571H27.5884L25.2831 14.5519V16.2143C25.2831 16.3848 25.3509 16.5483 25.4714 16.6689C25.592 16.7894 25.7555 16.8571 25.926 16.8571ZM15.3766 15.948C15.1355 16.1891 15 16.5161 15 16.8571V26.1271C15 27.4195 15.5134 28.6589 16.4272 29.5728C17.3411 30.4866 18.5805 31 19.8729 31H25.2857C25.6267 31 25.9537 30.8645 26.1949 30.6234C26.436 30.3823 26.5714 30.0553 26.5714 29.7143H20.1429C19.1199 29.7143 18.1388 29.3079 17.4154 28.5846C16.6921 27.8612 16.2857 26.8801 16.2857 25.8571V15.5714C15.9447 15.5714 15.6177 15.7069 15.3766 15.948Z" fill="#00B74C"/>
</svg>
