<svg width="44" height="44" viewBox="0 0 44 44" fill="none" xmlns="http://www.w3.org/2000/svg">
<path fill-rule="evenodd" clip-rule="evenodd" d="M0 22C0 9.85089 9.85089 0 22 0C34.1491 0 44 9.85089 44 22C44 34.1491 34.1491 44 22 44C9.85089 44 0 34.1491 0 22ZM3.73214 22C3.73214 32.0866 11.9134 40.2679 22 40.2679C32.0866 40.2679 40.2679 32.0866 40.2679 22C40.2679 11.9134 32.0866 3.73214 22 3.73214C11.9134 3.73214 3.73214 11.9134 3.73214 22ZM22.234 13.7267C23.1865 13.252 24.4053 13 25.75 13C27.0955 13 28.3143 13.252 29.2653 13.7267C30.2178 14.2015 31 14.9748 31 16V25C31 26.0252 30.217 26.7985 29.266 27.2733C28.3135 27.748 27.0947 28 25.75 28C24.99 27.9962 24.2337 27.8938 23.5 27.6955V28C23.5 29.0252 22.717 29.7985 21.766 30.2733C20.8135 30.748 19.5947 31 18.25 31C16.9053 31 15.6865 30.748 14.7347 30.2733C13.7823 29.7985 13 29.0252 13 28V22C13 20.9748 13.7822 20.2015 14.734 19.7267C15.6865 19.252 16.9053 19 18.25 19C19.0246 18.996 19.7965 19.0905 20.5472 19.2812C20.5422 19.2509 20.5353 19.2202 20.5282 19.1891C20.5143 19.1274 20.5 19.0644 20.5 19V16C20.5 14.9748 21.2822 14.2015 22.234 13.7267ZM28.5858 15.0858C27.9093 14.746 26.8923 14.5 25.75 14.5C24.6077 14.5 23.59 14.746 22.9142 15.0858C22.237 15.4255 22 15.7825 22 16C22 16.2167 22.237 16.5745 22.9142 16.9142C23.5907 17.254 24.6077 17.5 25.75 17.5C26.8923 17.5 27.91 17.254 28.5858 16.9142C29.263 16.5745 29.5 16.2175 29.5 16C29.5 15.7832 29.263 15.4255 28.5858 15.0858ZM22.0994 18.1937C22.0665 18.1726 22.0337 18.1516 22 18.133V19C22 19.2168 22.237 19.5745 22.9142 19.9142C23.5907 20.254 24.6077 20.5 25.75 20.5C26.8923 20.5 27.9093 20.254 28.5858 19.9142C29.263 19.5745 29.5 19.2175 29.5 19V18.133C29.4658 18.1519 29.4327 18.1731 29.3994 18.1945C29.3559 18.2223 29.3123 18.2503 29.266 18.2733C28.3135 18.748 27.0947 19 25.75 19C24.4053 19 23.1865 18.748 22.2347 18.2733C22.1876 18.2501 22.1433 18.2218 22.0994 18.1937ZM21.0858 21.0858C20.4093 20.746 19.3923 20.5 18.25 20.5C17.1077 20.5 16.09 20.746 15.4142 21.0858C14.737 21.4255 14.5 21.7825 14.5 22C14.5 22.2168 14.737 22.5745 15.4142 22.9142C16.0907 23.254 17.1077 23.5 18.25 23.5C19.3923 23.5 20.4093 23.254 21.0858 22.9142C21.763 22.5745 22 22.2175 22 22C22 21.7832 21.763 21.4255 21.0858 21.0858ZM29.5 22V21.133C29.4658 21.1519 29.4327 21.1731 29.3994 21.1945C29.3559 21.2223 29.3123 21.2503 29.266 21.2733C28.3135 21.748 27.0947 22 25.75 22C24.9235 22 24.1502 21.9002 23.4528 21.7188C23.4578 21.7491 23.4647 21.7798 23.4718 21.8109C23.4857 21.8726 23.5 21.9356 23.5 22V23.1483C24.2263 23.3854 24.986 23.5041 25.75 23.5C26.8923 23.5 27.9093 23.254 28.5858 22.9142C29.263 22.5745 29.5 22.2175 29.5 22ZM14.5994 24.1937C14.5665 24.1726 14.5337 24.1516 14.5 24.133V25C14.5 25.2168 14.737 25.5745 15.4142 25.9142C16.0907 26.254 17.1077 26.5 18.25 26.5C19.3923 26.5 20.4093 26.254 21.0858 25.9142C21.763 25.5745 22 25.2175 22 25V24.133C21.9658 24.1519 21.9327 24.1731 21.8994 24.1945C21.8559 24.2223 21.8123 24.2503 21.766 24.2733C20.8135 24.748 19.5947 25 18.25 25C16.9053 25 15.6865 24.748 14.7347 24.2733C14.6876 24.2501 14.6433 24.2218 14.5994 24.1937ZM29.5 25V24.133C29.4658 24.1519 29.4327 24.1731 29.3994 24.1945C29.3559 24.2223 29.3123 24.2503 29.266 24.2733C28.3135 24.748 27.0947 25 25.75 25C24.9385 25 24.1885 24.9002 23.5 24.7188V26.1715C24.127 26.38 24.8973 26.5 25.75 26.5C26.8923 26.5 27.9093 26.254 28.5858 25.9142C29.263 25.5745 29.5 25.2175 29.5 25ZM14.5994 27.1937C14.5665 27.1726 14.5337 27.1516 14.5 27.133V28C14.5 28.2168 14.737 28.5745 15.4142 28.9142C16.0907 29.254 17.1077 29.5 18.25 29.5C19.3923 29.5 20.4093 29.254 21.0858 28.9142C21.763 28.5745 22 28.2175 22 28V27.133C21.9658 27.1519 21.9327 27.1731 21.8994 27.1945C21.8559 27.2223 21.8123 27.2503 21.766 27.2733C20.8135 27.748 19.5947 28 18.25 28C16.9053 28 15.6865 27.748 14.7347 27.2733C14.6876 27.2501 14.6433 27.2218 14.5994 27.1937Z" fill="#00B74C"/>
</svg>
