<svg width="44" height="44" viewBox="0 0 44 44" fill="none" xmlns="http://www.w3.org/2000/svg">
<path fill-rule="evenodd" clip-rule="evenodd" d="M0 22C0 9.85089 9.85089 0 22 0C34.1491 0 44 9.85089 44 22C44 34.1491 34.1491 44 22 44C9.85089 44 0 34.1491 0 22ZM3.73214 22C3.73214 32.0866 11.9134 40.2679 22 40.2679C32.0866 40.2679 40.2679 32.0866 40.2679 22C40.2679 11.9134 32.0866 3.73214 22 3.73214C11.9134 3.73214 3.73214 11.9134 3.73214 22ZM28.3712 14.4245C28.6508 13.7143 29.2777 13.1865 30.0182 13.0379C30.937 12.8535 31.9319 13.3576 32.3527 14.2208C32.6571 14.8452 32.6565 15.4981 32.3511 16.1236C31.9836 16.8759 31.311 17.3018 30.4481 17.3286L30.0246 17.3417L28.1681 20.6044L26.3116 23.8672L26.4681 24.1221C26.6798 24.4667 26.7615 24.7177 26.7924 25.1181C26.9017 26.5367 25.5167 27.6992 24.1435 27.3416C22.9149 27.0216 22.2132 25.7482 22.6167 24.5709L22.7042 24.3156L21.2637 22.8818L19.8233 21.448L19.5988 21.5409C19.4181 21.6156 19.2771 21.6338 18.8774 21.6338L18.3806 21.6339L16.5573 24.5026L14.734 27.3713L14.9086 27.6206C15.1422 27.9541 15.2632 28.2943 15.2948 28.7066C15.4039 30.1301 14.0216 31.2927 12.6461 30.9345C11.489 30.6331 10.7735 29.4579 11.0652 28.3379C11.3181 27.3668 12.2282 26.6596 13.1764 26.6975L13.4459 26.7083L15.3239 23.7609L17.202 20.8137L17.0846 20.6364C16.7891 20.1898 16.6763 19.5329 16.8075 19.022C17.2294 17.379 19.1737 16.8032 20.3882 17.9617C20.9894 18.5351 21.2161 19.4699 20.932 20.204L20.8465 20.4248L22.2803 21.8652L23.7141 23.3057L23.9694 23.2145C24.1509 23.1497 24.3479 23.1217 24.6513 23.1178L25.078 23.1122L26.9282 19.8688L28.7784 16.6255L28.6038 16.3553C28.3331 15.9366 28.2662 15.695 28.2694 15.1477C28.2716 14.772 28.2923 14.625 28.3712 14.4245ZM30.894 15.6867C31.2574 15.3233 31.1492 14.7296 30.6842 14.5353C29.9581 14.2319 29.3453 15.1365 29.9006 15.692C30.1946 15.9859 30.5969 15.9838 30.894 15.6867ZM19.3967 19.9982C19.76 19.6348 19.6518 19.0411 19.1869 18.8468C18.4607 18.5434 17.8479 19.448 18.4033 20.0035C18.6973 20.2974 19.0996 20.2953 19.3967 19.9982ZM25.1506 25.7521C25.5095 25.3933 25.397 24.7883 24.9355 24.5955C24.5233 24.4233 24.0313 24.6741 23.9519 25.0969C23.8192 25.8048 24.646 26.2567 25.1506 25.7521ZM13.648 29.3398C14.0114 28.9764 13.9032 28.3827 13.4382 28.1884C12.7121 27.885 12.0992 28.7896 12.6546 29.3451C12.9486 29.639 13.3509 29.6369 13.648 29.3398Z" fill="#00B74C"/>
</svg>
